<svg xmlns="http://www.w3.org/2000/svg" viewBox="0 0 64 64" role="img" aria-label="Destinos pelo Mundo">
  <defs>
    <radialGradient id="sphere" cx="34%" cy="25%" r="72%">
      <stop offset="0%" stop-color="#5e7691" />
      <stop offset="42%" stop-color="#12263c" />
      <stop offset="100%" stop-color="#06101d" />
    </radialGradient>
    <linearGradient id="gold" x1="10" y1="14" x2="54" y2="50" gradientUnits="userSpaceOnUse">
      <stop offset="0%" stop-color="#fff0a8" />
      <stop offset="40%" stop-color="#d4af37" />
      <stop offset="100%" stop-color="#986814" />
    </linearGradient>
    <linearGradient id="orbit" x1="8" y1="42" x2="58" y2="19" gradientUnits="userSpaceOnUse">
      <stop offset="0%" stop-color="#f97316" />
      <stop offset="42%" stop-color="#f8d66d" />
      <stop offset="100%" stop-color="#b57917" />
    </linearGradient>
    <clipPath id="globeClip">
      <circle cx="32" cy="32" r="24" />
    </clipPath>
    <filter id="shadow" x="-20%" y="-20%" width="140%" height="140%">
      <feDropShadow dx="0" dy="3" stdDeviation="3" flood-color="#000" flood-opacity=".45" />
    </filter>
  </defs>

  <circle cx="32" cy="32" r="29" fill="#06101d" />
  <g filter="url(#shadow)">
    <circle cx="32" cy="32" r="24" fill="url(#sphere)" stroke="url(#gold)" stroke-width="2.5" />
    <g clip-path="url(#globeClip)" fill="url(#gold)" opacity=".95">
      <path d="M15.7 24.2c2.8-5.2 7.3-8.1 12.4-9.1l1.1 3.3-3.8 2.2 1.2 3.2-4.1 1.8-1.1 5.8-4.8.8-2.9-3.5Z" />
      <path d="M25.5 34.2l4.9 1.9 2 4.7-2.7 7.4-4.1-2.5-2.8-6.7Z" />
      <path d="M35.1 17.7c6.6 1.1 11.3 5.2 13.4 11.1l-5.5.6-3.7-2.3-3.2 1.6-3.6-2.3 2.5-3.1-2.1-2.8Z" />
      <path d="M40.3 34.2l8.7 1.2c-.9 5.4-4 10-8.4 12.7l-2.6-4.6 2.3-4.3-3.6-2.2Z" />
    </g>
    <ellipse cx="32" cy="32" rx="29" ry="10.5" fill="none" stroke="url(#orbit)" stroke-width="4" transform="rotate(-23 32 32)" />
    <path d="M50.6 18.6 59 14.4l-3 8.9-2-2-7.8 5.2-1.6-2.4 7.9-5.3Z" fill="url(#gold)" />
    <path d="M11.3 43.8c7.6-1.3 18.8-5.2 30.1-12.1" fill="none" stroke="#fff1a8" stroke-linecap="round" stroke-width="1.5" opacity=".65" />
  </g>
</svg>
